<svg width="300" height="150" viewBox="0 0 300 150" fill="none" xmlns="http://www.w3.org/2000/svg">
<mask id="path-1-inside-1_9_255" fill="white">
<path d="M0.591596 149.832C0.5916 110.16 16.3515 72.112 44.4043 44.0592C72.4572 16.0064 110.505 0.246443 150.178 0.246447C189.85 0.24645 227.898 16.0064 255.951 44.0592C284.004 72.112 299.764 110.16 299.764 149.833L150.178 149.833L0.591596 149.832Z"/>
</mask>
<path d="M0.591596 149.832C0.5916 110.16 16.3515 72.112 44.4043 44.0592C72.4572 16.0064 110.505 0.246443 150.178 0.246447C189.85 0.24645 227.898 16.0064 255.951 44.0592C284.004 72.112 299.764 110.16 299.764 149.833L150.178 149.833L0.591596 149.832Z" stroke="white" stroke-width="20" mask="url(#path-1-inside-1_9_255)"/>
</svg>
