<svg width="183" height="183" viewBox="0 0 183 183" fill="none" xmlns="http://www.w3.org/2000/svg">
<g id="Group 5080">
<circle id="Ellipse 369" cx="10.1667" cy="10.1667" r="10.1667" fill="#F7DD00" fill-opacity="0.47"/>
<circle id="Ellipse 374" cx="10.1667" cy="50.8333" r="10.1667" fill="#F7DD00" fill-opacity="0.47"/>
<circle id="Ellipse 379" cx="10.1667" cy="91.5" r="10.1667" fill="#F7DD00" fill-opacity="0.47"/>
<circle id="Ellipse 384" cx="10.1667" cy="132.167" r="10.1667" fill="#F7DD00" fill-opacity="0.47"/>
<circle id="Ellipse 389" cx="10.1667" cy="172.833" r="10.1667" fill="#F7DD00" fill-opacity="0.47"/>
<circle id="Ellipse 370" cx="50.8335" cy="10.1667" r="10.1667" fill="#F7DD00" fill-opacity="0.47"/>
<circle id="Ellipse 375" cx="50.8335" cy="50.8332" r="10.1667" fill="#F7DD00" fill-opacity="0.47"/>
<circle id="Ellipse 380" cx="50.8335" cy="91.5001" r="10.1667" fill="#F7DD00" fill-opacity="0.47"/>
<circle id="Ellipse 385" cx="50.8335" cy="132.167" r="10.1667" fill="#F7DD00" fill-opacity="0.47"/>
<circle id="Ellipse 390" cx="50.8335" cy="172.833" r="10.1667" fill="#F7DD00" fill-opacity="0.47"/>
<circle id="Ellipse 371" cx="91.5003" cy="10.1667" r="10.1667" fill="#F7DD00" fill-opacity="0.47"/>
<circle id="Ellipse 376" cx="91.5003" cy="50.8332" r="10.1667" fill="#F7DD00" fill-opacity="0.47"/>
<circle id="Ellipse 381" cx="91.5003" cy="91.5001" r="10.1667" fill="#F7DD00" fill-opacity="0.47"/>
<circle id="Ellipse 386" cx="91.5003" cy="132.167" r="10.1667" fill="#F7DD00" fill-opacity="0.47"/>
<circle id="Ellipse 391" cx="91.5003" cy="172.833" r="10.1667" fill="#F7DD00" fill-opacity="0.47"/>
<circle id="Ellipse 372" cx="132.167" cy="10.1667" r="10.1667" fill="#F7DD00" fill-opacity="0.47"/>
<circle id="Ellipse 377" cx="132.167" cy="50.8333" r="10.1667" fill="#F7DD00" fill-opacity="0.47"/>
<circle id="Ellipse 382" cx="132.167" cy="91.5" r="10.1667" fill="#F7DD00" fill-opacity="0.47"/>
<circle id="Ellipse 387" cx="132.167" cy="132.167" r="10.1667" fill="#F7DD00" fill-opacity="0.47"/>
<circle id="Ellipse 392" cx="132.167" cy="172.833" r="10.1667" fill="#F7DD00" fill-opacity="0.47"/>
<circle id="Ellipse 373" cx="172.834" cy="10.1667" r="10.1667" fill="#F7DD00" fill-opacity="0.47"/>
<circle id="Ellipse 378" cx="172.834" cy="50.8332" r="10.1667" fill="#F7DD00" fill-opacity="0.47"/>
<circle id="Ellipse 383" cx="172.834" cy="91.5001" r="10.1667" fill="#F7DD00" fill-opacity="0.47"/>
<circle id="Ellipse 388" cx="172.834" cy="132.167" r="10.1667" fill="#F7DD00" fill-opacity="0.47"/>
<circle id="Ellipse 393" cx="172.834" cy="172.833" r="10.1667" fill="#F7DD00" fill-opacity="0.47"/>
</g>
</svg>
