<svg width="1440" height="1022" viewBox="0 0 1440 1022" fill="none" xmlns="http://www.w3.org/2000/svg">
<path d="M-177.833 117.153L-60.6665 0V234.306L-177.833 117.153Z" fill="#ECECE9" fill-opacity="0.07"/>
<path d="M-177.833 117.153L-60.6665 234.306L-295 234.306L-177.833 117.153Z" fill="#ECECE9" fill-opacity="0.07"/>
<path d="M-177.833 117.153L-295 0L-295 234.306L-177.833 117.153Z" fill="#ECECE9" fill-opacity="0.07"/>
<path d="M-177.833 117.153L-60.6665 0H-295L-177.833 117.153Z" fill="#ECECE9" fill-opacity="0.07"/>
<path d="M-60.6665 0H-177.833C-177.833 64.7017 -230.291 117.153 -295 117.153L-295 234.306C-165.581 234.306 -60.6665 129.403 -60.6665 0Z" fill="#ECECE9" fill-opacity="0.07"/>
<path d="M9.63339 70.2917H103.367V164.014H9.63339V70.2917Z" fill="#ECECE9" fill-opacity="0.07"/>
<path d="M290.833 117.153L408 0V234.306L290.833 117.153Z" fill="#ECECE9" fill-opacity="0.07"/>
<path d="M290.833 117.153L408 234.306L173.667 234.306L290.833 117.153Z" fill="#ECECE9" fill-opacity="0.07"/>
<path d="M290.833 117.153L173.667 0L173.667 234.306L290.833 117.153Z" fill="#ECECE9" fill-opacity="0.07"/>
<path d="M290.833 117.153L408 0H173.667L290.833 117.153Z" fill="#ECECE9" fill-opacity="0.07"/>
<path d="M220.534 234.306V8.05143e-05H267.401V234.306H220.534Z" fill="#ECECE9" fill-opacity="0.07"/>
<path d="M314.267 234.306V8.05143e-05H361.134V234.306H314.267Z" fill="#ECECE9" fill-opacity="0.07"/>
<path fill-rule="evenodd" clip-rule="evenodd" d="M525.167 0C460.457 0 408 52.4511 408 117.153C408 181.855 460.457 234.306 525.167 234.306C589.876 234.306 642.333 181.855 642.333 117.153C642.333 52.4511 589.876 0 525.167 0ZM525.164 43.5177L451.52 117.153L525.164 190.788L598.808 117.153L525.164 43.5177Z" fill="#ECECE9" fill-opacity="0.07"/>
<path d="M642.333 234.306C642.333 104.902 747.248 0 876.667 0V234.306H642.333Z" fill="#ECECE9" fill-opacity="0.07"/>
<path d="M876.667 234.306C876.667 104.902 981.581 0 1111 0V234.306H876.667Z" fill="#ECECE9" fill-opacity="0.07"/>
<path d="M1228.17 117.153L1345.33 0V234.306L1228.17 117.153Z" fill="#ECECE9" fill-opacity="0.07"/>
<path d="M1228.17 117.153L1345.33 234.306L1111 234.306L1228.17 117.153Z" fill="#ECECE9" fill-opacity="0.07"/>
<path d="M1228.17 117.153L1111 0V234.306L1228.17 117.153Z" fill="#ECECE9" fill-opacity="0.07"/>
<path d="M1228.17 117.153L1345.33 0H1111L1228.17 117.153Z" fill="#ECECE9" fill-opacity="0.07"/>
<path d="M1228.17 0H1345.33V117.153L1228.17 117.153V0Z" fill="#ECECE9" fill-opacity="0.07"/>
<path d="M1462.5 117.153L1579.67 0V234.306L1462.5 117.153Z" fill="#ECECE9" fill-opacity="0.07"/>
<path d="M1462.5 117.153L1579.67 234.306H1345.33L1462.5 117.153Z" fill="#ECECE9" fill-opacity="0.07"/>
<path d="M1462.5 117.153L1345.33 0V234.306L1462.5 117.153Z" fill="#ECECE9" fill-opacity="0.07"/>
<path d="M1462.5 117.153L1579.67 0H1345.33L1462.5 117.153Z" fill="#ECECE9" fill-opacity="0.07"/>
<path d="M1345.33 0H1462.5V117.153L1345.33 117.153V0Z" fill="#ECECE9" fill-opacity="0.07"/>
<path d="M1696.83 117.153L1814 0V234.306L1696.83 117.153Z" fill="#ECECE9" fill-opacity="0.07"/>
<path d="M1696.83 117.153L1814 234.306H1579.67L1696.83 117.153Z" fill="#ECECE9" fill-opacity="0.07"/>
<path d="M1696.83 117.153L1579.67 0V234.306L1696.83 117.153Z" fill="#ECECE9" fill-opacity="0.07"/>
<path d="M1696.83 117.153L1814 0H1579.67L1696.83 117.153Z" fill="#ECECE9" fill-opacity="0.07"/>
<path d="M1579.67 0H1814V234.306C1684.58 234.306 1579.67 129.403 1579.67 0Z" fill="#ECECE9" fill-opacity="0.07"/>
<path d="M1696.83 0H1814V117.153C1749.29 117.153 1696.83 64.7017 1696.83 0Z" fill="#ECECE9" fill-opacity="0.07"/>
<path d="M-177.833 351.458L-60.6665 234.306V468.611L-177.833 351.458Z" fill="#ECECE9" fill-opacity="0.07"/>
<path d="M-177.833 351.458L-60.6665 468.611L-295 468.611L-177.833 351.458Z" fill="#ECECE9" fill-opacity="0.07"/>
<path d="M-177.833 351.458L-295 234.306V468.611L-177.833 351.458Z" fill="#ECECE9" fill-opacity="0.07"/>
<path d="M-177.833 351.458L-60.6665 234.306L-295 234.306L-177.833 351.458Z" fill="#ECECE9" fill-opacity="0.07"/>
<path d="M-295 234.306C-165.581 234.306 -60.6665 339.208 -60.6665 468.611L-295 468.611V234.306Z" fill="#ECECE9" fill-opacity="0.07"/>
<path d="M-295 351.458C-230.291 351.458 -177.833 403.91 -177.833 468.611H-295L-295 351.458Z" fill="#ECECE9" fill-opacity="0.07"/>
<path d="M-295 515.472H-60.6665V562.333H-295V515.472Z" fill="#ECECE9" fill-opacity="0.07"/>
<path d="M-295 609.195H-60.6665V656.056H-295V609.195Z" fill="#ECECE9" fill-opacity="0.07"/>
<path d="M-224.7 820.07C-224.7 794.19 -203.717 773.209 -177.833 773.209C-151.95 773.209 -130.967 794.19 -130.967 820.07C-130.967 845.951 -151.95 866.931 -177.833 866.931C-203.717 866.931 -224.7 845.951 -224.7 820.07Z" fill="#ECECE9" fill-opacity="0.07"/>
<path d="M-248.133 984.083H-201.266V1030.94H-248.133V984.083Z" fill="#ECECE9" fill-opacity="0.07"/>
<path d="M-248.133 1077.81H-201.266V1124.67H-248.133V1077.81Z" fill="#ECECE9" fill-opacity="0.07"/>
<path d="M-154.399 984.083H-107.533V1030.94H-154.399V984.083Z" fill="#ECECE9" fill-opacity="0.07"/>
<path d="M-154.399 1077.81H-107.533V1124.67H-154.399V1077.81Z" fill="#ECECE9" fill-opacity="0.07"/>
<path d="M-177.833 1288.68L-60.6665 1171.53V1405.83L-177.833 1288.68Z" fill="#ECECE9" fill-opacity="0.07"/>
<path d="M-177.833 1288.68L-60.6665 1405.83L-295 1405.83L-177.833 1288.68Z" fill="#ECECE9" fill-opacity="0.07"/>
<path d="M-177.833 1288.68L-295 1171.53L-295 1405.83L-177.833 1288.68Z" fill="#ECECE9" fill-opacity="0.07"/>
<path d="M-177.833 1288.68L-60.6665 1171.53H-295L-177.833 1288.68Z" fill="#ECECE9" fill-opacity="0.07"/>
<path d="M-295 1288.68C-230.291 1288.68 -177.833 1341.13 -177.833 1405.83H-295L-295 1288.68Z" fill="#ECECE9" fill-opacity="0.07"/>
<path d="M56.5001 351.458H173.667V468.611H56.5001V351.458Z" fill="#ECECE9" fill-opacity="0.07"/>
<path d="M56.5001 585.764L173.667 468.611V702.917L56.5001 585.764Z" fill="#ECECE9" fill-opacity="0.07"/>
<path d="M56.5001 585.764L173.667 702.917H-60.6667L56.5001 585.764Z" fill="#ECECE9" fill-opacity="0.07"/>
<path d="M56.5001 585.764L-60.6665 468.611L-60.6667 702.917L56.5001 585.764Z" fill="#ECECE9" fill-opacity="0.07"/>
<path d="M56.5001 585.764L173.667 468.611L-60.6665 468.611L56.5001 585.764Z" fill="#ECECE9" fill-opacity="0.07"/>
<path d="M56.5001 468.611H173.667V585.764H56.5001V468.611Z" fill="#ECECE9" fill-opacity="0.07"/>
<path d="M56.5001 702.917L-60.6667 702.917L-60.6666 820.07V937.223H56.3799C-8.27428 937.158 -60.6666 884.732 -60.6666 820.07C-60.6666 755.369 -8.20931 702.917 56.5001 702.917Z" fill="#ECECE9" fill-opacity="0.07"/>
<path d="M173.667 819.95C173.602 755.304 121.169 702.917 56.5001 702.917L173.667 702.917V819.95Z" fill="#ECECE9" fill-opacity="0.07"/>
<path d="M173.667 820.191C173.602 884.797 121.234 937.158 56.6203 937.223H173.667V820.191Z" fill="#ECECE9" fill-opacity="0.07"/>
<path d="M56.5001 1054.38L173.667 937.223V1171.53L56.5001 1054.38Z" fill="#ECECE9" fill-opacity="0.07"/>
<path d="M56.5001 1054.38L173.667 1171.53L-60.6665 1171.53L56.5001 1054.38Z" fill="#ECECE9" fill-opacity="0.07"/>
<path d="M56.5001 1054.38L-60.6666 937.223L-60.6665 1171.53L56.5001 1054.38Z" fill="#ECECE9" fill-opacity="0.07"/>
<path d="M56.5001 1054.38L173.667 937.223H-60.6666L56.5001 1054.38Z" fill="#ECECE9" fill-opacity="0.07"/>
<path d="M-60.6666 1054.38C4.04272 1054.38 56.5001 1106.83 56.5001 1171.53L-60.6665 1171.53L-60.6666 1054.38Z" fill="#ECECE9" fill-opacity="0.07"/>
<path d="M56.5001 1288.68L173.667 1171.53V1405.83L56.5001 1288.68Z" fill="#ECECE9" fill-opacity="0.07"/>
<path d="M56.5001 1288.68L173.667 1405.83H-60.6665L56.5001 1288.68Z" fill="#ECECE9" fill-opacity="0.07"/>
<path d="M56.5001 1288.68L-60.6665 1171.53V1405.83L56.5001 1288.68Z" fill="#ECECE9" fill-opacity="0.07"/>
<path d="M56.5001 1288.68L173.667 1171.53L-60.6665 1171.53L56.5001 1288.68Z" fill="#ECECE9" fill-opacity="0.07"/>
<path d="M56.5001 1171.53H173.667V1288.68C108.957 1288.68 56.5001 1236.23 56.5001 1171.53Z" fill="#ECECE9" fill-opacity="0.07"/>
<path d="M290.833 351.458L408 234.306V468.611L290.833 351.458Z" fill="#ECECE9" fill-opacity="0.07"/>
<path d="M290.833 351.458L408 468.611L173.667 468.611L290.833 351.458Z" fill="#ECECE9" fill-opacity="0.07"/>
<path d="M290.833 351.458L173.667 234.306L173.667 468.611L290.833 351.458Z" fill="#ECECE9" fill-opacity="0.07"/>
<path d="M290.833 351.458L408 234.306L173.667 234.306L290.833 351.458Z" fill="#ECECE9" fill-opacity="0.07"/>
<path d="M173.667 351.458H290.833V468.611H173.667V351.458Z" fill="#ECECE9" fill-opacity="0.07"/>
<path d="M290.833 585.764L408 468.611V702.917L290.833 585.764Z" fill="#ECECE9" fill-opacity="0.07"/>
<path d="M290.833 585.764L408 702.917H173.667L290.833 585.764Z" fill="#ECECE9" fill-opacity="0.07"/>
<path d="M290.833 585.764L173.667 468.611V702.917L290.833 585.764Z" fill="#ECECE9" fill-opacity="0.07"/>
<path d="M290.833 585.764L408 468.611L173.667 468.611L290.833 585.764Z" fill="#ECECE9" fill-opacity="0.07"/>
<path d="M173.667 468.611H290.833V585.764H173.667V468.611Z" fill="#ECECE9" fill-opacity="0.07"/>
<path d="M290.833 937.223C290.833 872.521 343.291 820.07 408 820.07V937.223H290.833Z" fill="#ECECE9" fill-opacity="0.07"/>
<path d="M290.833 1054.38L408 937.223L408 1171.53L290.833 1054.38Z" fill="#ECECE9" fill-opacity="0.07"/>
<path d="M290.833 1054.38L408 1171.53H173.667L290.833 1054.38Z" fill="#ECECE9" fill-opacity="0.07"/>
<path d="M290.833 1054.38L173.667 937.223V1171.53L290.833 1054.38Z" fill="#ECECE9" fill-opacity="0.07"/>
<path d="M290.833 1054.38L408 937.223H173.667L290.833 1054.38Z" fill="#ECECE9" fill-opacity="0.07"/>
<path d="M290.833 937.223H173.667C173.667 1066.63 278.581 1171.53 408 1171.53L408 1054.38C343.291 1054.38 290.833 1001.92 290.833 937.223Z" fill="#ECECE9" fill-opacity="0.07"/>
<path d="M290.833 1288.68H408V1405.83H290.833V1288.68Z" fill="#ECECE9" fill-opacity="0.07"/>
<path d="M525.167 234.306L408 234.306V468.611L525.167 468.611V234.306Z" fill="#ECECE9" fill-opacity="0.07"/>
<path d="M525.167 585.764L642.333 468.611V702.917L525.167 585.764Z" fill="#ECECE9" fill-opacity="0.07"/>
<path d="M525.167 585.764L642.333 702.917H408L525.167 585.764Z" fill="#ECECE9" fill-opacity="0.07"/>
<path d="M525.167 585.764L408 468.611V702.917L525.167 585.764Z" fill="#ECECE9" fill-opacity="0.07"/>
<path d="M525.167 585.764L642.333 468.611L408 468.611L525.167 585.764Z" fill="#ECECE9" fill-opacity="0.07"/>
<path d="M408 585.764H525.167V702.917H408L408 585.764Z" fill="#ECECE9" fill-opacity="0.07"/>
<path d="M458.889 820.07L525.168 753.799L591.448 820.07L525.168 886.342L458.889 820.07Z" fill="#ECECE9" fill-opacity="0.07"/>
<path d="M525.167 1054.38L642.333 937.222V1171.53L525.167 1054.38Z" fill="#ECECE9" fill-opacity="0.07"/>
<path d="M525.167 1054.38L642.333 1171.53H408L525.167 1054.38Z" fill="#ECECE9" fill-opacity="0.07"/>
<path d="M525.167 1054.38L408 937.223L408 1171.53L525.167 1054.38Z" fill="#ECECE9" fill-opacity="0.07"/>
<path d="M525.167 1054.38L642.333 937.222L408 937.223L525.167 1054.38Z" fill="#ECECE9" fill-opacity="0.07"/>
<path d="M408 937.223L525.167 937.222C525.167 1001.92 472.709 1054.38 408 1054.38V937.223Z" fill="#ECECE9" fill-opacity="0.07"/>
<path d="M454.867 1241.82C454.867 1228.88 465.359 1218.39 478.301 1218.39C491.242 1218.39 501.734 1228.88 501.734 1241.82C501.734 1254.76 491.242 1265.25 478.301 1265.25C465.359 1265.25 454.867 1254.76 454.867 1241.82Z" fill="#ECECE9" fill-opacity="0.07"/>
<path d="M454.867 1335.54C454.867 1322.6 465.359 1312.11 478.301 1312.11C491.242 1312.11 501.734 1322.6 501.734 1335.54C501.734 1348.48 491.242 1358.97 478.301 1358.97C465.359 1358.97 454.867 1348.48 454.867 1335.54Z" fill="#ECECE9" fill-opacity="0.07"/>
<path d="M548.601 1241.82C548.601 1228.88 559.092 1218.39 572.034 1218.39C584.976 1218.39 595.467 1228.88 595.467 1241.82C595.467 1254.76 584.976 1265.25 572.034 1265.25C559.092 1265.25 548.601 1254.76 548.601 1241.82Z" fill="#ECECE9" fill-opacity="0.07"/>
<path d="M548.601 1335.54C548.601 1322.6 559.092 1312.11 572.034 1312.11C584.976 1312.11 595.467 1322.6 595.467 1335.54C595.467 1348.48 584.976 1358.97 572.034 1358.97C559.092 1358.97 548.601 1348.48 548.601 1335.54Z" fill="#ECECE9" fill-opacity="0.07"/>
<path d="M759.5 234.306L642.333 234.306V351.458L642.333 468.611L759.38 468.611C694.726 468.546 642.333 416.12 642.333 351.458C642.333 286.757 694.791 234.306 759.5 234.306Z" fill="#ECECE9" fill-opacity="0.07"/>
<path d="M876.667 351.338C876.602 286.692 824.169 234.306 759.5 234.306L876.667 234.306V351.338Z" fill="#ECECE9" fill-opacity="0.07"/>
<path d="M876.667 351.579C876.602 416.185 824.234 468.546 759.62 468.611H876.667V351.579Z" fill="#ECECE9" fill-opacity="0.07"/>
<path d="M642.333 515.472H876.667V562.333H642.333V515.472Z" fill="#ECECE9" fill-opacity="0.07"/>
<path d="M642.333 609.195H876.667V656.056H642.333V609.195Z" fill="#ECECE9" fill-opacity="0.07"/>
<path d="M712.633 773.209H806.367V866.931H712.633V773.209Z" fill="#ECECE9" fill-opacity="0.07"/>
<path d="M759.5 1054.38L876.667 937.222V1171.53L759.5 1054.38Z" fill="#ECECE9" fill-opacity="0.07"/>
<path d="M759.5 1054.38L876.667 1171.53H642.333L759.5 1054.38Z" fill="#ECECE9" fill-opacity="0.07"/>
<path d="M759.5 1054.38L642.333 937.222V1171.53L759.5 1054.38Z" fill="#ECECE9" fill-opacity="0.07"/>
<path d="M759.5 1054.38L876.667 937.222H642.333L759.5 1054.38Z" fill="#ECECE9" fill-opacity="0.07"/>
<path d="M642.333 1054.38L759.5 1054.38V1171.53H642.333L642.333 1054.38Z" fill="#ECECE9" fill-opacity="0.07"/>
<path d="M759.5 1405.83C759.5 1341.13 811.957 1288.68 876.667 1288.68V1405.83H759.5Z" fill="#ECECE9" fill-opacity="0.07"/>
<path d="M993.833 468.611C993.833 403.91 1046.29 351.458 1111 351.458V468.611H993.833Z" fill="#ECECE9" fill-opacity="0.07"/>
<path d="M1111 234.306H876.667V468.611C876.667 339.208 981.581 234.306 1111 234.306Z" fill="#ECECE9" fill-opacity="0.07"/>
<path d="M993.833 585.764L1111 468.611V702.917L993.833 585.764Z" fill="#ECECE9" fill-opacity="0.07"/>
<path d="M993.833 585.764L1111 702.917H876.667L993.833 585.764Z" fill="#ECECE9" fill-opacity="0.07"/>
<path d="M993.833 585.764L876.667 468.611L876.667 702.917L993.833 585.764Z" fill="#ECECE9" fill-opacity="0.07"/>
<path d="M993.833 585.764L1111 468.611H876.667L993.833 585.764Z" fill="#ECECE9" fill-opacity="0.07"/>
<path d="M993.833 468.611H1111V585.764C1046.29 585.764 993.833 533.313 993.833 468.611Z" fill="#ECECE9" fill-opacity="0.07"/>
<path d="M923.534 773.209C923.534 760.269 934.025 749.778 946.967 749.778C959.909 749.778 970.401 760.269 970.401 773.209C970.401 786.149 959.909 796.64 946.967 796.64C934.025 796.64 923.534 786.149 923.534 773.209Z" fill="#ECECE9" fill-opacity="0.07"/>
<path d="M923.534 866.931C923.534 853.991 934.025 843.501 946.967 843.501C959.909 843.501 970.401 853.991 970.401 866.931C970.401 879.872 959.909 890.362 946.967 890.362C934.025 890.362 923.534 879.872 923.534 866.931Z" fill="#ECECE9" fill-opacity="0.07"/>
<path d="M1017.27 773.209C1017.27 760.269 1027.76 749.778 1040.7 749.778C1053.64 749.778 1064.13 760.269 1064.13 773.209C1064.13 786.149 1053.64 796.64 1040.7 796.64C1027.76 796.64 1017.27 786.149 1017.27 773.209Z" fill="#ECECE9" fill-opacity="0.07"/>
<path d="M1017.27 866.931C1017.27 853.991 1027.76 843.501 1040.7 843.501C1053.64 843.501 1064.13 853.991 1064.13 866.931C1064.13 879.872 1053.64 890.362 1040.7 890.362C1027.76 890.362 1017.27 879.872 1017.27 866.931Z" fill="#ECECE9" fill-opacity="0.07"/>
<path d="M993.833 1171.53C993.833 1106.83 1046.29 1054.38 1111 1054.38V1171.53H993.833Z" fill="#ECECE9" fill-opacity="0.07"/>
<path d="M993.833 1288.68L1111 1171.53V1405.83L993.833 1288.68Z" fill="#ECECE9" fill-opacity="0.07"/>
<path d="M993.833 1288.68L1111 1405.83L876.667 1405.83L993.833 1288.68Z" fill="#ECECE9" fill-opacity="0.07"/>
<path d="M993.833 1288.68L876.667 1171.53V1405.83L993.833 1288.68Z" fill="#ECECE9" fill-opacity="0.07"/>
<path d="M993.833 1288.68L1111 1171.53H876.667L993.833 1288.68Z" fill="#ECECE9" fill-opacity="0.07"/>
<path d="M993.833 1171.53H876.667C876.667 1300.93 981.581 1405.83 1111 1405.83V1288.68C1046.29 1288.68 993.833 1236.23 993.833 1171.53Z" fill="#ECECE9" fill-opacity="0.07"/>
<path d="M1111 234.306L1345.33 234.306V468.611H1111V234.306Z" fill="#ECECE9" fill-opacity="0.07"/>
<path d="M1189.11 312.407H1267.22V390.509H1189.11V312.407Z" fill="#ECECE9" fill-opacity="0.07"/>
<path d="M1111 312.407H1189.11V390.509H1111V312.407Z" fill="#ECECE9" fill-opacity="0.07"/>
<path d="M1267.22 312.407H1345.34V390.509H1267.22V312.407Z" fill="#ECECE9" fill-opacity="0.07"/>
<path d="M1189.11 234.306H1267.22V312.407H1189.11V234.306Z" fill="#ECECE9" fill-opacity="0.07"/>
<path d="M1189.11 390.509H1267.22V468.612H1189.11V390.509Z" fill="#ECECE9" fill-opacity="0.07"/>
<path d="M1228.17 585.764L1345.33 468.611V702.917L1228.17 585.764Z" fill="#ECECE9" fill-opacity="0.07"/>
<path d="M1228.17 585.764L1345.33 702.917H1111L1228.17 585.764Z" fill="#ECECE9" fill-opacity="0.07"/>
<path d="M1228.17 585.764L1111 468.611V702.917L1228.17 585.764Z" fill="#ECECE9" fill-opacity="0.07"/>
<path d="M1228.17 585.764L1345.33 468.611H1111L1228.17 585.764Z" fill="#ECECE9" fill-opacity="0.07"/>
<path d="M1111 468.611H1345.33C1345.33 598.015 1240.42 702.917 1111 702.917V468.611Z" fill="#ECECE9" fill-opacity="0.07"/>
<path d="M1111 468.611L1228.17 468.611C1228.17 533.313 1175.71 585.764 1111 585.764V468.611Z" fill="#ECECE9" fill-opacity="0.07"/>
<path d="M1228.17 820.07L1345.33 702.917V937.223L1228.17 820.07Z" fill="#ECECE9" fill-opacity="0.07"/>
<path d="M1228.17 820.07L1345.33 937.223H1111L1228.17 820.07Z" fill="#ECECE9" fill-opacity="0.07"/>
<path d="M1228.17 820.07L1111 702.917L1111 937.223L1228.17 820.07Z" fill="#ECECE9" fill-opacity="0.07"/>
<path d="M1228.17 820.07L1345.33 702.917H1111L1228.17 820.07Z" fill="#ECECE9" fill-opacity="0.07"/>
<path d="M1111 820.07L1228.17 820.07V937.223H1111V820.07Z" fill="#ECECE9" fill-opacity="0.07"/>
<path d="M1228.17 1054.38L1345.33 937.223V1171.53L1228.17 1054.38Z" fill="#ECECE9" fill-opacity="0.07"/>
<path d="M1228.17 1054.38L1345.33 1171.53H1111L1228.17 1054.38Z" fill="#ECECE9" fill-opacity="0.07"/>
<path d="M1228.17 1054.38L1111 937.223L1111 1171.53L1228.17 1054.38Z" fill="#ECECE9" fill-opacity="0.07"/>
<path d="M1228.17 1054.38L1345.33 937.223H1111L1228.17 1054.38Z" fill="#ECECE9" fill-opacity="0.07"/>
<path d="M1111 937.223H1228.17C1228.17 1001.92 1175.71 1054.38 1111 1054.38L1111 937.223Z" fill="#ECECE9" fill-opacity="0.07"/>
<path d="M1228.17 1288.68L1345.33 1171.53V1405.83L1228.17 1288.68Z" fill="#ECECE9" fill-opacity="0.07"/>
<path d="M1228.17 1288.68L1345.33 1405.83H1111L1228.17 1288.68Z" fill="#ECECE9" fill-opacity="0.07"/>
<path d="M1228.17 1288.68L1111 1171.53V1405.83L1228.17 1288.68Z" fill="#ECECE9" fill-opacity="0.07"/>
<path d="M1228.17 1288.68L1345.33 1171.53H1111L1228.17 1288.68Z" fill="#ECECE9" fill-opacity="0.07"/>
<path d="M1111 1288.68C1175.71 1288.68 1228.17 1341.13 1228.17 1405.83L1111 1405.83V1288.68Z" fill="#ECECE9" fill-opacity="0.07"/>
<path d="M1392.2 304.597C1392.2 291.657 1402.69 281.167 1415.63 281.167C1428.58 281.167 1439.07 291.657 1439.07 304.597C1439.07 317.538 1428.58 328.028 1415.63 328.028C1402.69 328.028 1392.2 317.538 1392.2 304.597Z" fill="#ECECE9" fill-opacity="0.07"/>
<path d="M1392.2 398.32C1392.2 385.379 1402.69 374.889 1415.63 374.889C1428.58 374.889 1439.07 385.379 1439.07 398.32C1439.07 411.26 1428.58 421.75 1415.63 421.75C1402.69 421.75 1392.2 411.26 1392.2 398.32Z" fill="#ECECE9" fill-opacity="0.07"/>
<path d="M1485.93 304.597C1485.93 291.657 1496.42 281.167 1509.37 281.167C1522.31 281.167 1532.8 291.657 1532.8 304.597C1532.8 317.538 1522.31 328.028 1509.37 328.028C1496.42 328.028 1485.93 317.538 1485.93 304.597Z" fill="#ECECE9" fill-opacity="0.07"/>
<path d="M1485.93 398.32C1485.93 385.379 1496.42 374.889 1509.37 374.889C1522.31 374.889 1532.8 385.379 1532.8 398.32C1532.8 411.26 1522.31 421.75 1509.37 421.75C1496.42 421.75 1485.93 411.26 1485.93 398.32Z" fill="#ECECE9" fill-opacity="0.07"/>
<path fill-rule="evenodd" clip-rule="evenodd" d="M1462.5 468.611C1397.79 468.611 1345.33 521.062 1345.33 585.764C1345.33 650.466 1397.79 702.917 1462.5 702.917C1527.21 702.917 1579.67 650.466 1579.67 585.764C1579.67 521.062 1527.21 468.611 1462.5 468.611ZM1462.5 512.129L1388.85 585.764L1462.5 659.399L1536.14 585.764L1462.5 512.129Z" fill="#ECECE9" fill-opacity="0.07"/>
<path d="M1415.63 820.07C1415.63 794.189 1436.62 773.209 1462.5 773.209C1488.38 773.209 1509.37 794.189 1509.37 820.07C1509.37 845.951 1488.38 866.931 1462.5 866.931C1436.62 866.931 1415.63 845.951 1415.63 820.07Z" fill="#ECECE9" fill-opacity="0.07"/>
<path d="M1392.2 984.084H1439.07V1030.94H1392.2V984.084Z" fill="#ECECE9" fill-opacity="0.07"/>
<path d="M1392.2 1077.81H1439.07V1124.67H1392.2V1077.81Z" fill="#ECECE9" fill-opacity="0.07"/>
<path d="M1485.93 984.084H1532.8V1030.94H1485.93V984.084Z" fill="#ECECE9" fill-opacity="0.07"/>
<path d="M1485.93 1077.81H1532.8V1124.67H1485.93V1077.81Z" fill="#ECECE9" fill-opacity="0.07"/>
<path d="M1462.5 1171.53L1345.33 1171.53L1345.33 1288.68L1345.33 1405.83L1462.38 1405.83C1397.73 1405.77 1345.33 1353.34 1345.33 1288.68C1345.33 1223.98 1397.79 1171.53 1462.5 1171.53Z" fill="#ECECE9" fill-opacity="0.07"/>
<path d="M1579.67 1288.56C1579.6 1223.92 1527.17 1171.53 1462.5 1171.53H1579.67V1288.56Z" fill="#ECECE9" fill-opacity="0.07"/>
<path d="M1579.67 1288.8C1579.6 1353.41 1527.23 1405.77 1462.62 1405.83H1579.67V1288.8Z" fill="#ECECE9" fill-opacity="0.07"/>
<path d="M1649.97 304.597H1743.7V398.32H1649.97V304.597Z" fill="#ECECE9" fill-opacity="0.07"/>
<path d="M1696.83 702.917C1696.83 638.215 1749.29 585.764 1814 585.764V702.917H1696.83Z" fill="#ECECE9" fill-opacity="0.07"/>
<path d="M1814 468.611H1579.67V702.917C1579.67 573.513 1684.58 468.611 1814 468.611Z" fill="#ECECE9" fill-opacity="0.07"/>
<path d="M1696.83 820.07L1814 702.917V937.223L1696.83 820.07Z" fill="#ECECE9" fill-opacity="0.07"/>
<path d="M1696.83 820.07L1814 937.223H1579.67L1696.83 820.07Z" fill="#ECECE9" fill-opacity="0.07"/>
<path d="M1696.83 820.07L1579.67 702.917V937.223L1696.83 820.07Z" fill="#ECECE9" fill-opacity="0.07"/>
<path d="M1696.83 820.07L1814 702.917H1579.67L1696.83 820.07Z" fill="#ECECE9" fill-opacity="0.07"/>
<path d="M1696.83 702.917H1814V820.07C1749.29 820.07 1696.83 767.619 1696.83 702.917Z" fill="#ECECE9" fill-opacity="0.07"/>
<path d="M1579.67 984.084H1814V1030.94H1579.67V984.084Z" fill="#ECECE9" fill-opacity="0.07"/>
<path d="M1579.67 1077.81H1814V1124.67H1579.67V1077.81Z" fill="#ECECE9" fill-opacity="0.07"/>
<path d="M1696.83 1288.68L1814 1171.53V1405.83L1696.83 1288.68Z" fill="#ECECE9" fill-opacity="0.07"/>
<path d="M1696.83 1288.68L1814 1405.83H1579.67L1696.83 1288.68Z" fill="#ECECE9" fill-opacity="0.07"/>
<path d="M1696.83 1288.68L1579.67 1171.53V1405.83L1696.83 1288.68Z" fill="#ECECE9" fill-opacity="0.07"/>
<path d="M1696.83 1288.68L1814 1171.53H1579.67L1696.83 1288.68Z" fill="#ECECE9" fill-opacity="0.07"/>
<path d="M1696.83 1288.68L1814 1288.68V1405.83H1696.83V1288.68Z" fill="#ECECE9" fill-opacity="0.07"/>
</svg>
